<svg width="37" height="13" viewBox="0 0 37 13" fill="none" xmlns="http://www.w3.org/2000/svg">
<path d="M0.147727 12H4.85795C7.52273 12 8.82955 10.642 8.82955 8.82955C8.82955 7.06818 7.57955 6.03409 6.34091 5.97159V5.85795C7.47727 5.59091 8.375 4.79545 8.375 3.38068C8.375 1.64773 7.125 0.363636 4.60227 0.363636H0.147727V12ZM2.25568 10.2386V6.82955H4.57955C5.88068 6.82955 6.6875 7.625 6.6875 8.66477C6.6875 9.59091 6.05114 10.2386 4.52273 10.2386H2.25568ZM2.25568 5.3125V2.10227H4.38636C5.625 2.10227 6.26705 2.75568 6.26705 3.65341C6.26705 4.67614 5.4375 5.3125 4.34091 5.3125H2.25568ZM13.0838 12.1761C14.4531 12.1761 15.2713 11.5341 15.6463 10.8011H15.7145V12H17.6918V6.15909C17.6918 3.85227 15.8111 3.15909 14.1463 3.15909C12.3111 3.15909 10.902 3.97727 10.4474 5.56818L12.3679 5.84091C12.5724 5.24432 13.152 4.73295 14.1577 4.73295C15.1122 4.73295 15.6349 5.22159 15.6349 6.07955V6.11364C15.6349 6.70455 15.0156 6.73295 13.4759 6.89773C11.7827 7.07955 10.1634 7.58523 10.1634 9.55114C10.1634 11.267 11.419 12.1761 13.0838 12.1761ZM13.6179 10.6648C12.7599 10.6648 12.1463 10.2727 12.1463 9.51705C12.1463 8.72727 12.8338 8.39773 13.7543 8.26705C14.294 8.19318 15.3736 8.05682 15.6406 7.84091V8.86932C15.6406 9.84091 14.8565 10.6648 13.6179 10.6648ZM23.5668 12.1705C25.7599 12.1705 27.1577 10.8693 27.3054 9.01705H25.3395C25.1634 9.95455 24.4872 10.4943 23.5838 10.4943C22.2997 10.4943 21.4702 9.42045 21.4702 7.63636C21.4702 5.875 22.3168 4.81818 23.5838 4.81818C24.5724 4.81818 25.1804 5.45455 25.3395 6.29545H27.3054C27.1634 4.40341 25.6861 3.15909 23.5554 3.15909C20.9986 3.15909 19.3849 5.00568 19.3849 7.67045C19.3849 10.3125 20.9588 12.1705 23.5668 12.1705ZM28.9943 12H31.0511V9.06818L31.8011 8.26705L34.4716 12H36.9318L33.3523 7.03977L36.733 3.27273H34.3295L31.1932 6.77841H31.0511V0.363636H28.9943V12Z" fill="#8692A6"/>
</svg>
